<svg width="1440" height="800" viewBox="0 0 1440 800" fill="none" xmlns="http://www.w3.org/2000/svg">
    <g opacity="0.5">
        <path d="M97 214C97 236.091 79.0914 254 57 254C34.9086 254 17 236.091 17 214C17 191.909 34.9086 174 57 174C79.0914 174 97 191.909 97 214Z" fill="white"/>
        <path d="M147 194C147 216.091 129.091 234 107 234C84.9086 234 67 216.091 67 194C67 171.909 84.9086 154 107 154C129.091 154 147 171.909 147 194Z" fill="white"/>
        <path d="M187 224C187 246.091 169.091 264 147 264C124.909 264 107 246.091 107 224C107 201.909 124.909 184 147 184C169.091 184 187 201.909 187 224Z" fill="white"/>
    </g>
    <g opacity="0.5" transform="translate(400, 100)">
        <path d="M97 214C97 236.091 79.0914 254 57 254C34.9086 254 17 236.091 17 214C17 191.909 34.9086 174 57 174C79.0914 174 97 191.909 97 214Z" fill="white"/>
        <path d="M147 194C147 216.091 129.091 234 107 234C84.9086 234 67 216.091 67 194C67 171.909 84.9086 154 107 154C129.091 154 147 171.909 147 194Z" fill="white"/>
        <path d="M187 224C187 246.091 169.091 264 147 264C124.909 264 107 246.091 107 224C107 201.909 124.909 184 147 184C169.091 184 187 201.909 187 224Z" fill="white"/>
    </g>
    <g opacity="0.5" transform="translate(800, 300)">
        <path d="M97 214C97 236.091 79.0914 254 57 254C34.9086 254 17 236.091 17 214C17 191.909 34.9086 174 57 174C79.0914 174 97 191.909 97 214Z" fill="white"/>
        <path d="M147 194C147 216.091 129.091 234 107 234C84.9086 234 67 216.091 67 194C67 171.909 84.9086 154 107 154C129.091 154 147 171.909 147 194Z" fill="white"/>
        <path d="M187 224C187 246.091 169.091 264 147 264C124.909 264 107 246.091 107 224C107 201.909 124.909 184 147 184C169.091 184 187 201.909 187 224Z" fill="white"/>
    </g>
</svg> 